# xmcd
#
# Track frame offsets: 
#        150
#        13959
#        26631
#        36277
#        46159
#        56520
#        67490
#        77831
#        89836
#        103512
#        117492
#        127524
#        139037
#        149314
#        158109
#        172989
#        186070
#        199681
#        211107
#        220702
#        232559
#        243260
#        255987
#        269628
#        282241
#        297257
#        307272
#        320609
#        333640
#        344312
#        355655
#        365376
#        376948
#
# Disc length: 5202 seconds
#
# Revision: 0
# Processed by: cddbd v1.5.2PL0 Copyright (c) Steve Scherf et al.
# Submitted via: ExactAudioCopyFreeDBPlugin 1.0
#
DISCID=f2145021
DTITLE=Slim Harpo - Buzzin' The Blues: The Complete Slim Harpo [CD1
DTITLE=)
DYEAR=2015
DGENRE=Blues
TTITLE0=I'm A King Bee
TTITLE1=I Got Love If You Want It
TTITLE2=Wondering And Worryin'
TTITLE3=Strange Love
TTITLE4=You'll Be Sorry One Day
TTITLE5=One More Day
TTITLE6=Buzz Me Babe
TTITLE7=Late Last Night
TTITLE8=What A Dream
TTITLE9=Blues Hangover
TTITLE10=Don't Start Cryin' Now
TTITLE11=Rainin' In My Heart
TTITLE12=Snoopin' Around (Instrumental)
TTITLE13=Bobby Sox Baby
TTITLE14=Dream Girl
TTITLE15=My Home Is A Prison
TTITLE16=Moody Blues (Instrumental)
TTITLE17=I Love The Life I'm Living
TTITLE18=Buzzin' (Instrumental)
TTITLE19=My Little Queen Bee (Got A Brand New King)
TTITLE20=I Need Money (Keep Your Alibis)
TTITLE21=We're Two Of A Kind
TTITLE22=Still Rainin' In My Heart
TTITLE23=What's Goin' On Baby
TTITLE24=Sittin' Here Wondering
TTITLE25=Harpo's Blues
TTITLE26=Please Don't Turn me Down
TTITLE27=Baby Scratch My Back
TTITLE28=I'm Gonna Miss You (Like The Devil)
TTITLE29=Shake Your Hips
TTITLE30=Midnight Blues
TTITLE31=I'm Your Breadmaker, Baby
TTITLE32=Loving You (The Way I Do)
EXTD=
EXTT0=
EXTT1=
EXTT2=
EXTT3=
EXTT4=
EXTT5=
EXTT6=
EXTT7=
EXTT8=
EXTT9=
EXTT10=
EXTT11=
EXTT12=
EXTT13=
EXTT14=
EXTT15=
EXTT16=
EXTT17=
EXTT18=
EXTT19=
EXTT20=
EXTT21=
EXTT22=
EXTT23=
EXTT24=
EXTT25=
EXTT26=
EXTT27=
EXTT28=
EXTT29=
EXTT30=
EXTT31=
EXTT32=
PLAYORDER=
